<svg xmlns="http://www.w3.org/2000/svg" xmlns:xlink="http://www.w3.org/1999/xlink" version="1.1" x="0px" y="0px" viewBox="0 0 100 125" enable-background="new 0 0 100 100" xml:space="preserve"><path fill-rule="evenodd" clip-rule="evenodd" d="M43.4982185,55.7953491c1.0676079,0,1.938179-0.8705711,1.938179-1.938179  s-0.8705711-1.9381828-1.938179-1.9381828s-1.9381828,0.870575-1.9381828,1.9381828S42.4306107,55.7953491,43.4982185,55.7953491z"/><path fill-rule="evenodd" clip-rule="evenodd" d="M43.4982185,70.5246735c1.0676079,0,1.938179-0.8705673,1.938179-1.938179  s-0.8705711-1.938179-1.938179-1.938179s-1.9381828,0.8705673-1.9381828,1.938179S42.4306107,70.5246735,43.4982185,70.5246735z"/><path fill-rule="evenodd" clip-rule="evenodd" d="M43.4982185,85.2540054c1.0676079,0,1.938179-0.870575,1.938179-1.9381866  c0-1.0676041-0.8705711-1.938179-1.938179-1.938179s-1.9381828,0.870575-1.9381828,1.938179  C41.5600357,84.3834305,42.4306107,85.2540054,43.4982185,85.2540054z"/><circle fill-rule="evenodd" clip-rule="evenodd" cx="83.1239014" cy="74.1561966" r="1.3567657"/><circle fill-rule="evenodd" clip-rule="evenodd" cx="83.1239014" cy="78.9590759" r="1.3567657"/><circle fill-rule="evenodd" clip-rule="evenodd" cx="83.1239014" cy="83.762085" r="1.3567657"/><circle fill-rule="evenodd" clip-rule="evenodd" cx="16.8765869" cy="74.1561966" r="1.3567657"/><circle fill-rule="evenodd" clip-rule="evenodd" cx="16.8765869" cy="78.9590759" r="1.3567657"/><circle fill-rule="evenodd" clip-rule="evenodd" cx="16.8765869" cy="83.762085" r="1.3567657"/><path d="M87.476265,60.3013268c-0.0000763-0.0032349,0.0016556-0.006073,0.0015793-0.0093079l-0.3482437-11.8175735  c-0.0000839-0.0033913-0.0020523-0.0061531-0.0022125-0.0095444l-0.8583069-29.1255894  c-0.0921097-3.1013889-2.0970306-5.7472839-5.2337494-6.9055729L67.8545914,7.5677891  c0.0289383-0.6057987-0.3817596-1.144804-0.9761276-1.2724776l-5.9857521-1.2844644  c-0.06427-0.0138793-0.125782,0.0004735-0.1894989-0.0030751c-0.0745239-0.0042586-0.1455765-0.0129333-0.2196236-0.0036278  c-0.102047,0.0126176-0.1943893,0.0462117-0.288784,0.0828815c-0.047081,0.0180588-0.0985756,0.0173492-0.1436844,0.0411649  c-0.0128517,0.0067816-0.0201073,0.0201092-0.0326462,0.0273643c-0.0991249,0.0570941-0.1801949,0.1360326-0.2604713,0.2182832  c-0.035881,0.0368271-0.0807533,0.0627718-0.1117439,0.1036215c-0.0993652,0.1306701-0.1764908,0.2806611-0.218441,0.4494205  L58.747654,8.690197C56.4149895,9.5361233,53.3130455,10.0515499,50,10.0515499s-6.4149895-0.5154266-8.7477303-1.3614321  l-0.680088-2.763238c-0.0059128-0.0238943-0.0242882-0.0415592-0.0315437-0.0649014  c-0.0435295-0.140449-0.1020432-0.2723808-0.1867371-0.3842826c-0.0305977-0.0404549-0.0749168-0.0660057-0.1102448-0.1023598  c-0.0806732-0.083118-0.1622963-0.162293-0.2621307-0.2197814c-0.0125389-0.0071764-0.0198708-0.0205827-0.0326462-0.0273643  c-0.0447922-0.0236583-0.0961304-0.0229483-0.1428947-0.0409284c-0.0940781-0.0365906-0.1863441-0.0700274-0.2883911-0.0826449  c-0.0752296-0.009542-0.1472282-0.0011039-0.2229347,0.0033913c-0.0630875,0.0036273-0.1236534-0.010725-0.1873703,0.0028386  l-5.9857559,1.2844644c-0.5943642,0.1276736-1.0050621,0.6666789-0.9761238,1.2724776l-13.1807404,4.8659496  c-3.1367178,1.1570272-5.1416435,3.8029232-5.2337513,6.9055729l-2.0654888,70.0878448  c-0.0088329,0.3356247,0.1173429,0.6598969,0.3507671,0.9008942c0.2334242,0.2397308,0.5539093,0.3759995,0.8895359,0.3759995  h13.7859097c0.3835735,0,0.7280312-0.1741257,0.9551468-0.4491882l0.0025234,3.5051498  c0,0.683876,0.555172,1.2390442,1.240303,1.2390442h19.2682266c0.6851311,0,1.240303-0.5551682,1.240303-1.240303V90.22332  h1.2049751v3.5354309c0,0.6851349,0.555172,1.240303,1.240303,1.240303h19.2669601  c0.0100937,0.0012589,0.0189285,0.0012589,0.025238,0c0.6851349,0,1.240303-0.5551682,1.240303-1.240303  c0-0.087059-0.0088348-0.1716003-0.025238-0.2536087l-0.0012589-3.2553253  c0.2271194,0.2775879,0.5728378,0.4542313,0.958931,0.4542313h13.7859116c0.3356247,0,0.6561127-0.1362686,0.889534-0.3759995  c0.233429-0.2409973,0.3596039-0.5652695,0.350769-0.9008942L87.476265,60.3013268z M84.9544907,58.9575577  c-2.0429306-0.4990997-3.5620804-2.3444138-3.5620804-4.537735c0-2.1140671,1.3746796-3.8873825,3.2964859-4.4684181  L84.9544907,58.9575577z M61.5500832,7.6882868l3.7663307,0.8087835l-0.4731522,7.9301167l-5.0142059,1.2907715  c-0.4681129,0.1198673-0.823925,0.5021782-0.9109879,0.9765968c-0.087059,0.4756813,0.1097717,0.9589329,0.5047035,1.2377796  l3.0647964,2.1664295l-7.5200462,12.3298473L61.5500832,7.6882868z M38.4511757,7.6882868l6.5825653,26.7415886l-7.5213089-12.33111  l3.0660591-2.1664295c0.394928-0.2788467,0.5917625-0.7620983,0.5047035-1.2377796  c-0.0870628-0.4744186-0.4428749-0.8567295-0.9109879-0.9765968l-5.0154648-1.2907715l-0.4731598-7.9301167L38.4511757,7.6882868z   M36.233017,68.2927933v7.1629715c0,2.7518845-2.2383499,4.9902344-4.9889717,4.9902344h-1.1220932l-0.0067806-12.1532059H36.233017  z M30.1147766,65.8121872V61.995388h6.1182404v3.8167992H30.1147766z M46.9175377,92.5184479H30.1286564l-0.0053635-9.5918427  h1.1207523c4.1183624,0,7.4695778-3.3512192,7.4695778-7.4708405v-7.1629715V59.514782H30.110281l-0.0119076-21.4106827  c0-0.6737785-0.5400295-1.2251625-1.2150669-1.2390404c-0.7002735-0.0176659-1.2365189,0.5135307-1.2642765,1.1885681  l-2.1159592,50.1698151h-11.320446l0.7882795-26.7352028c3.4546785-0.5028839,6.1198168-3.4766808,6.1198168-7.0684166  c0-3.4707642-2.4252472-6.3261108-5.7052517-6.9918442l0.8260536-28.0154858  c0.0618267-2.1008186,1.4119015-3.8395128,3.6111355-4.6520815l12.474556-4.6052399l0.4369621,7.3230543  c0.0315437,0.537508,0.4075432,0.993,0.9286499,1.1267452l3.2956963,0.8478985l-1.8244934,1.2895107  c-0.5337219,0.377264-0.6838722,1.101511-0.3431969,1.6592045l12.1267052,19.8801003V92.5184479z M15.3118935,49.950695  c1.9229107,0.5804062,3.2982216,2.3544312,3.2982216,4.4691277c0,2.1941872-1.5204124,4.0401344-3.5644512,4.5385246  L15.3118935,49.950695z M50.6384468,41.6370049c-0.0227127,0.0971565-0.0353279,0.1968346-0.0353279,0.2965126v45.8091965  h-1.2049751V42.0585098c0.0045738-0.0431366,0.0252342-0.0806732,0.0252342-0.1249924  c0-0.0887947-0.0380898-0.1645775-0.0558319-0.2480927c-0.0033112-0.0160065-0.0020485-0.0325661-0.0059929-0.04842  l-0.0576477-0.2343674c-0.0002365-0.0004768-0.0001564-0.0011063-0.0003929-0.0015793l-0.2254601-0.9157944l-7.1363144-28.9939766  C44.2853622,12.1474781,47.0316467,12.532155,50,12.532155c2.9684296,0,5.7147141-0.3846769,8.0582619-1.0408669  L50.6384468,41.6370049z M74.4956665,88.2234421l-2.1702118-50.0587807c-0.0290222-0.663681-0.576622-1.1860466-1.2390442-1.1860466  c-0.0088272,0-0.017662,0-0.0277557,0c-0.6737747,0.0151405-1.2125473,0.5665283-1.2125473,1.240303l0.0093842,21.2958641  h-8.5956116v8.7780113v7.1629715c0,4.1196213,3.3512192,7.4708405,7.4708405,7.4708405h1.1351013l0.0042572,9.5918427H53.083725  v-50.236763l12.1254425-19.8801003c0.3394089-0.5576935,0.1905212-1.2819405-0.3431931-1.6592045l-1.8244972-1.2895107  l3.2956963-0.8478985c0.5211029-0.1337452,0.89711-0.5892372,0.9286499-1.1267452l0.4369583-7.322897l12.4732971,4.6050825  c2.2005005,0.8125687,3.5505753,2.5512629,3.6123962,4.6520815l0.8260574,28.0158024  c-3.2788239,0.6665993-5.7027283,3.5216293-5.7027283,6.9915276c0,3.5907898,2.6639557,6.5641098,6.1172943,7.0680237  l0.7882767,26.7355957H74.4956665z M69.8587265,68.2927933v12.1532059h-1.128006  c-2.7518845,0-4.9902344-2.2383499-4.9902344-4.9902344v-7.1629715H69.8587265z M63.7404861,65.8121872V61.995388h6.1161118  l0.0016556,3.8167992H63.7404861z"/></svg>
